<svg width="194" height="144" viewBox="0 0 194 144" fill="none" xmlns="http://www.w3.org/2000/svg">
<path d="M124.862 96.1158C124.695 96.0774 124.457 96.0116 124.293 95.9815C123.672 95.8957 123.046 95.8453 122.419 95.8306C121.235 95.7532 120.06 95.5606 118.913 95.2555C118.559 95.0561 118.267 94.7625 118.07 94.4073L117.281 94.1777C118.125 88.0149 116.676 81.757 113.209 76.5913C113.411 76.4079 113.794 76.0695 113.902 75.9699C113.875 75.5673 114.007 75.1702 114.269 74.8633C115.169 74.09 116.143 73.4062 117.176 72.8215C117.735 72.5373 118.278 72.221 118.801 71.8742C118.927 71.7806 119.099 71.6325 119.231 71.5269C119.463 71.379 119.662 71.1838 119.814 70.9542C119.966 70.7246 120.068 70.4656 120.113 70.1941C120.158 69.9225 120.146 69.6445 120.077 69.378C120.008 69.1114 119.883 68.8624 119.712 68.6471C119.54 68.4317 119.325 68.2548 119.081 68.1278C118.837 68.0009 118.568 67.9267 118.293 67.9101C118.018 67.8935 117.743 67.9349 117.485 68.0315C117.227 68.1282 116.993 68.2779 116.796 68.4711C116.663 68.5762 116.481 68.7142 116.363 68.8169C115.906 69.2469 115.475 69.7029 115.071 70.1828C114.272 71.0609 113.389 71.8592 112.435 72.5664C112.06 72.719 111.649 72.7636 111.25 72.6951L110.506 73.2262C106.225 68.7355 100.459 65.9506 94.2795 65.3888C94.2614 65.1291 94.2392 64.6587 94.2323 64.5165C93.9004 64.2865 93.6715 63.9359 93.5945 63.5396C93.5531 62.3536 93.6273 61.1664 93.8159 59.9948C93.9403 59.3813 94.0293 58.761 94.0822 58.1372C94.0882 57.9798 94.0789 57.7511 94.0789 57.5812C94.1064 57.308 94.0763 57.032 93.9905 56.7712C93.9047 56.5103 93.7652 56.2704 93.5809 56.0668C93.3966 55.8632 93.1716 55.7005 92.9205 55.5892C92.6694 55.4778 92.3977 55.4204 92.123 55.4205C91.8484 55.4207 91.5767 55.4784 91.3257 55.5899C91.0748 55.7015 90.8499 55.8644 90.6658 56.0682C90.4817 56.2719 90.3424 56.512 90.2568 56.773C90.1713 57.0339 90.1414 57.3098 90.1692 57.583C90.1692 57.6015 90.1734 57.6191 90.1738 57.6377C90.172 57.7997 90.1641 57.996 90.1692 58.1377C90.2226 58.7619 90.3117 59.3826 90.436 59.9967C90.6234 61.1681 90.6963 62.355 90.6537 63.5405C90.5427 63.9308 90.3226 64.2813 90.0191 64.5508L89.9728 65.3777C88.7835 65.4759 87.6026 65.6574 86.4387 65.9208C81.5493 67.0254 77.1016 69.5655 73.6668 73.215C73.4291 73.0511 73.1935 72.8841 72.96 72.7141C72.5733 72.8297 72.1566 72.7893 71.7993 72.6016C70.8454 71.8957 69.9627 71.0985 69.1637 70.2212C68.7615 69.7417 68.3321 69.2856 67.8775 68.8554C67.7584 68.7535 67.5764 68.6146 67.443 68.5081C67.0554 68.1956 66.5778 68.0155 66.0803 67.9942C65.7847 67.9787 65.4896 68.0331 65.219 68.153C64.9483 68.2728 64.7098 68.4548 64.5226 68.6841C64.2057 69.1303 64.0784 69.6838 64.1685 70.2236C64.2586 70.7634 64.5588 71.2456 65.0034 71.5649L65.0335 71.5862C65.1614 71.6908 65.3188 71.8246 65.4374 71.9112C65.959 72.2581 66.5001 72.5747 67.0581 72.8595C68.0913 73.4442 69.0649 74.1283 69.965 74.9022C70.1989 75.2338 70.3351 75.6242 70.3583 76.0292L70.9841 76.5885C67.5275 81.7727 66.1072 88.05 66.9956 94.2165L66.1771 94.4545C65.9635 94.7955 65.6765 95.0845 65.3369 95.3004C64.1905 95.6063 63.0169 95.7997 61.8329 95.8778C61.2054 95.8921 60.5792 95.9425 59.9575 96.0288C59.8074 96.0565 59.599 96.1093 59.4355 96.1501L59.4183 96.1538L59.3905 96.1621C59.1198 96.1977 58.8594 96.2894 58.6261 96.4313C58.3928 96.5732 58.1918 96.7623 58.0358 96.9864C57.8798 97.2104 57.7723 97.4646 57.7202 97.7326C57.6681 98.0006 57.6726 98.2765 57.7333 98.5426C57.794 98.8088 57.9096 99.0594 58.0728 99.2783C58.2359 99.4972 58.443 99.6797 58.6807 99.814C58.9184 99.9484 59.1816 100.032 59.4534 100.058C59.7252 100.085 59.9996 100.055 60.259 99.9699L60.2882 99.9652C60.3012 99.9625 60.3123 99.956 60.3252 99.9537C60.4864 99.9166 60.6893 99.8782 60.831 99.8398C61.4279 99.6493 62.0134 99.425 62.5847 99.1679C63.6855 98.7241 64.8269 98.3884 65.9928 98.1655C66.3971 98.1903 66.7863 98.3277 67.1165 98.5623L67.9687 98.4165C69.8819 104.325 73.8921 109.33 79.2427 112.486L78.8865 113.338C79.052 113.681 79.1128 114.065 79.0611 114.443C78.5738 115.556 77.9814 116.62 77.2917 117.621C76.9125 118.121 76.5626 118.642 76.2435 119.182C76.1657 119.33 76.0671 119.555 75.9925 119.709C75.8514 119.944 75.761 120.206 75.7272 120.477C75.6933 120.749 75.7168 121.025 75.796 121.287C75.8753 121.549 76.0085 121.792 76.1872 122C76.3659 122.207 76.5861 122.375 76.8337 122.493C77.0812 122.61 77.3506 122.674 77.6244 122.681C77.8983 122.688 78.1707 122.638 78.4239 122.534C78.6772 122.429 78.9057 122.273 79.0949 122.075C79.2841 121.877 79.4297 121.641 79.5224 121.383L79.5257 121.38V121.375C79.5998 121.222 79.7049 121.022 79.7674 120.879C79.9901 120.293 80.1784 119.695 80.3316 119.088C80.6691 117.853 81.1787 116.671 81.8453 115.577C82.0784 115.359 82.372 115.215 82.6878 115.166L83.1311 114.365C88.9342 116.596 95.3559 116.612 101.17 114.411C101.294 114.632 101.526 115.056 101.587 115.162C101.986 115.226 102.345 115.444 102.585 115.769C103.139 116.818 103.588 117.918 103.928 119.055C104.082 119.662 104.272 120.26 104.495 120.845C104.559 120.99 104.662 121.193 104.737 121.346C104.829 121.604 104.975 121.84 105.164 122.038C105.353 122.237 105.581 122.393 105.834 122.498C106.088 122.603 106.36 122.654 106.634 122.647C106.908 122.64 107.177 122.576 107.425 122.459C107.673 122.342 107.893 122.174 108.072 121.967C108.251 121.76 108.385 121.517 108.465 121.255C108.544 120.993 108.568 120.717 108.535 120.445C108.502 120.173 108.412 119.911 108.271 119.676C108.196 119.522 108.094 119.297 108.016 119.15C107.697 118.611 107.347 118.091 106.968 117.593C106.291 116.618 105.71 115.579 105.235 114.491C105.132 114.102 105.185 113.688 105.385 113.338C105.26 113.082 105.151 112.819 105.059 112.549C110.427 109.367 114.437 104.324 116.328 98.379C116.58 98.4193 117.021 98.4961 117.164 98.5253C117.461 98.2524 117.854 98.1067 118.257 98.1192C119.423 98.3419 120.565 98.6777 121.666 99.1216C122.238 99.3809 122.823 99.6069 123.421 99.7985C123.562 99.8356 123.764 99.8708 123.926 99.9064C123.939 99.9101 123.951 99.9157 123.964 99.9194L123.992 99.9236C124.251 100.009 124.526 100.039 124.797 100.012C125.069 99.9849 125.332 99.9016 125.569 99.7673C125.807 99.6331 126.014 99.4507 126.177 99.2319C126.34 99.0131 126.456 98.7627 126.517 98.4967C126.577 98.2307 126.582 97.9549 126.53 97.6871C126.478 97.4192 126.371 97.1651 126.215 96.941C126.059 96.7169 125.859 96.5278 125.626 96.3857C125.392 96.2436 125.132 96.1517 124.862 96.1158ZM106.288 76.2125L97.9336 82.133L97.9044 82.1191C97.6526 82.3027 97.3558 82.4146 97.0455 82.443C96.7352 82.4714 96.423 82.4153 96.1421 82.2805C95.8611 82.1457 95.622 81.9373 95.45 81.6776C95.2781 81.4178 95.1798 81.1163 95.1656 80.8051L95.1563 80.8005L94.5759 70.5666C98.9933 71.1149 103.108 73.0986 106.288 76.2125H106.288ZM90.5499 87.4303H93.694L95.6487 89.8731L94.9479 92.9197L92.1243 94.2781L89.2924 92.9169L88.5902 89.8689L90.5499 87.4303ZM87.592 70.925C88.2807 70.7701 88.9769 70.6505 89.6778 70.5666L89.0965 80.8162L89.0538 80.8366C89.0407 81.1478 88.9433 81.4497 88.7722 81.71C88.601 81.9703 88.3624 82.1793 88.0818 82.3148C87.8012 82.4503 87.4891 82.5072 87.1787 82.4794C86.8683 82.4516 86.5713 82.3402 86.3192 82.1571L86.303 82.1663L77.8943 76.2065C80.5712 73.5769 83.9302 71.7475 87.592 70.925ZM74.8452 80.037L82.522 86.9006L82.5137 86.9423C82.749 87.1469 82.9243 87.4116 83.0209 87.708C83.1175 88.0044 83.1319 88.3215 83.0623 88.6255C82.9928 88.9294 82.8421 89.2088 82.6262 89.4338C82.4103 89.6588 82.1374 89.8211 81.8365 89.9032L81.8286 89.9365L71.9882 92.7747C71.4979 88.3296 72.5032 83.8474 74.8452 80.037ZM85.1237 98.2702L81.214 107.714C77.4613 105.313 74.6062 101.741 73.0915 97.552L83.1811 95.8389L83.1983 95.8616C83.3097 95.8403 83.4229 95.8302 83.5364 95.8315C83.8193 95.8357 84.0969 95.9095 84.3445 96.0464C84.5922 96.1832 84.8023 96.379 84.9563 96.6162C85.1103 96.8535 85.2035 97.1251 85.2276 97.4069C85.2517 97.6888 85.206 97.9722 85.0945 98.2322L85.1237 98.2702ZM96.6644 110.415C93.0062 111.253 89.1867 111.057 85.6337 109.849L90.5958 100.879H90.6041C90.7517 100.605 90.9707 100.376 91.2379 100.216C91.5051 100.057 91.8105 99.9722 92.1218 99.9719C92.4332 99.9716 92.7388 100.056 93.0063 100.215C93.2738 100.374 93.4932 100.603 93.6412 100.876H93.6783L98.6529 109.861C98.0072 110.076 97.3444 110.261 96.6644 110.416V110.415ZM103.075 107.752L99.1253 98.2118L99.1374 98.1947C98.9622 97.7866 98.9513 97.3267 99.1068 96.9107C99.2624 96.4947 99.5725 96.1548 99.9725 95.9616C100.179 95.8607 100.403 95.8024 100.633 95.7903C100.765 95.7842 100.898 95.794 101.029 95.8195L101.046 95.7982L111.225 97.5178C109.722 101.74 106.855 105.341 103.075 107.752ZM112.294 92.7414L102.404 89.8939L102.395 89.8522C102.095 89.7693 101.822 89.6067 101.607 89.3816C101.392 89.1565 101.242 88.8773 101.172 88.5737C101.103 88.2701 101.117 87.9533 101.213 87.6571C101.31 87.3609 101.484 87.0963 101.719 86.8913L101.715 86.8714L109.349 80.0416C111.687 83.842 112.721 88.301 112.294 92.7419L112.294 92.7414Z" fill="#5B88E7" fill-opacity="0.4"/>
<path d="M194 61.4942C194 47.0241 182.518 34.9826 167.52 32.7205C162.811 13.7798 144.442 0 122.928 0C103.687 0 86.5376 11.202 79.9812 27.6356C57.6168 32.3518 39.8428 48.7606 35.1488 69.9114C15.3504 72.2551 0 87.9064 0 106.804C0 127.314 18.0808 144 40.3052 144H146.146C168.37 144 186.451 127.314 186.451 106.804C186.451 99.1066 183.904 91.9489 179.547 86.0086C188.431 80.7495 194 71.6412 194 61.4942ZM122.928 11.0743C140.034 11.0743 154.444 22.8758 156.448 38.5257L157.073 43.4131H162.406C173.21 43.4131 182 51.5243 182 61.4938C182 68.4695 177.76 74.6564 171.179 77.6741C165.57 73.56 158.751 70.7929 151.301 69.9106C145.758 44.9366 121.98 26.5743 93.9412 26.2657C99.9276 17.0404 110.868 11.0743 122.928 11.0743ZM146.146 132.926H40.3052C24.6976 132.926 12 121.208 12 106.804C12 92.4004 24.6984 80.6823 40.3072 80.6823H45.64L46.2656 75.7948C49.0728 53.8684 69.2608 37.3334 93.2252 37.3334C117.19 37.3334 137.378 53.868 140.185 75.7948L140.81 80.6823H146.143C161.752 80.6823 174.45 92.4004 174.45 106.804C174.45 121.208 161.753 132.926 146.146 132.926Z" fill="url(#paint0_linear_1_82)"/>
<path d="M104.54 92.8268L102.403 83.5504C102.346 83.3103 102.236 83.086 102.081 82.8937C101.926 82.7013 101.731 82.5457 101.509 82.438L92.8608 78.311C92.6366 78.2041 92.3914 78.1486 92.143 78.1486C91.8947 78.1486 91.6494 78.2041 91.4253 78.311L82.7783 82.4405C82.5561 82.548 82.3606 82.7036 82.2058 82.8958C82.0511 83.0881 81.941 83.3123 81.8834 83.5523L79.7507 92.8293C79.7026 93.0432 79.6976 93.2645 79.7361 93.4803C79.7746 93.6961 79.8558 93.902 79.9749 94.0861C80.0043 94.131 80.0354 94.1746 80.0691 94.2166L86.0542 101.655C86.211 101.847 86.4082 102.001 86.6316 102.108C86.855 102.214 87.0992 102.27 87.3467 102.272L96.9445 102.27C97.192 102.268 97.4361 102.212 97.6596 102.106C97.883 102 98.0802 101.845 98.2372 101.654L104.22 94.2145C104.373 94.0216 104.481 93.797 104.537 93.5569C104.592 93.3169 104.593 93.0676 104.54 92.8272V92.8268ZM103.506 93.2612C103.491 93.3269 103.473 93.3916 103.45 93.4548C103.395 93.6087 103.315 93.7525 103.213 93.8802L97.896 100.491L97.729 100.699C97.626 100.826 97.5029 100.935 97.3648 101.021C97.3115 101.055 97.2562 101.086 97.1991 101.114C97.1607 101.131 97.1215 101.147 97.0817 101.162C97.0307 101.181 96.9789 101.198 96.9262 101.212C96.8529 101.232 96.7781 101.246 96.7026 101.255C96.65 101.26 96.5971 101.264 96.5441 101.264L87.8324 101.266H87.747C87.6167 101.265 87.4872 101.247 87.3615 101.213C87.2084 101.172 87.0623 101.109 86.9282 101.024C86.8221 100.957 86.7248 100.876 86.6387 100.785C86.6125 100.757 86.5861 100.73 86.5622 100.7L81.0764 93.8823C81.0458 93.8438 81.0171 93.8039 80.9904 93.7626C80.9283 93.6667 80.8777 93.5639 80.8394 93.4563C80.8168 93.3932 80.7983 93.3287 80.7842 93.2631C80.7363 93.0482 80.7365 92.8253 80.7847 92.6104L82.7398 84.1076C82.7925 83.8876 82.8934 83.6821 83.0352 83.5059C83.177 83.3296 83.3562 83.1871 83.5598 83.0884L91.4852 79.3036C91.6906 79.2056 91.9154 79.1547 92.143 79.1547C92.3707 79.1547 92.5954 79.2056 92.8009 79.3036L100.727 83.0868C100.931 83.1855 101.11 83.3281 101.252 83.5044C101.394 83.6807 101.495 83.8862 101.547 84.1062L103.506 92.609C103.554 92.8238 103.554 93.0466 103.506 93.2614V93.2612Z" fill="#1E1E1E" stroke="url(#paint1_linear_1_82)"/>
<path d="M76.829 91.1166L74.6926 81.8401C74.6351 81.6001 74.5251 81.3758 74.3704 81.1834C74.2157 80.991 74.0202 80.8354 73.7981 80.7277L65.1503 76.6007C64.9261 76.4938 64.6809 76.4383 64.4325 76.4383C64.1841 76.4383 63.9389 76.4938 63.7148 76.6007L55.0678 80.7302C54.8456 80.8378 54.6501 80.9933 54.4953 81.1856C54.3406 81.3778 54.2305 81.602 54.1729 81.842L52.0402 91.119C51.9921 91.3329 51.9871 91.5542 52.0256 91.77C52.0641 91.9858 52.1453 92.1917 52.2644 92.3758C52.2937 92.4207 52.3249 92.4643 52.3586 92.5063L58.3437 99.9452C58.5005 100.137 58.6977 100.291 58.9211 100.398C59.1445 100.504 59.3887 100.56 59.6362 100.562L69.234 100.559C69.4815 100.558 69.7256 100.502 69.949 100.396C70.1725 100.289 70.3697 100.135 70.5267 99.9437L76.5096 92.5042C76.6628 92.3113 76.771 92.0867 76.8263 91.8467C76.8815 91.6067 76.8825 91.3573 76.829 91.1169V91.1166ZM75.7952 91.551C75.7808 91.6166 75.7621 91.6813 75.7393 91.7445C75.6842 91.8985 75.6041 92.0422 75.5021 92.1699L70.1855 98.781L70.0185 98.9891C69.9155 99.1155 69.7924 99.2243 69.6543 99.311C69.601 99.3451 69.5456 99.3759 69.4886 99.4034C69.4502 99.4211 69.411 99.4372 69.3711 99.4517C69.3202 99.471 69.2683 99.4877 69.2157 99.5017C69.1423 99.5215 69.0676 99.5357 68.9921 99.5443C68.9395 99.5502 68.8866 99.5533 68.8336 99.5535L60.1219 99.5555H60.0365C59.9062 99.5547 59.7766 99.5369 59.651 99.5025C59.4979 99.4619 59.3518 99.3983 59.2177 99.3138C59.1116 99.2463 59.0143 99.1659 58.9282 99.0743C58.902 99.0466 58.8756 99.0195 58.8517 98.99L53.3659 92.1721C53.3353 92.1336 53.3066 92.0936 53.2799 92.0523C53.2178 91.9564 53.1672 91.8536 53.1289 91.746C53.1063 91.6829 53.0878 91.6184 53.0737 91.5529C53.0258 91.3379 53.026 91.115 53.0742 90.9002L55.0293 82.3973C55.082 82.1773 55.1829 81.9718 55.3247 81.7956C55.4665 81.6194 55.6457 81.4768 55.8493 81.3782L63.7747 77.5933C63.9801 77.4953 64.2049 77.4445 64.4325 77.4445C64.6602 77.4445 64.8849 77.4953 65.0904 77.5933L73.017 81.3765C73.2206 81.4752 73.3997 81.6178 73.5415 81.7941C73.6832 81.9704 73.7841 82.176 73.8367 82.3959L75.795 90.8987C75.8432 91.1135 75.8433 91.3363 75.7952 91.5512V91.551Z" fill="#1E1E1E" stroke="#A5305C"/>
<path d="M132.961 90.6961L130.824 81.4196C130.767 81.1796 130.657 80.9553 130.502 80.7629C130.347 80.5706 130.152 80.4149 129.93 80.3073L121.282 76.1803C121.058 76.0733 120.812 76.0178 120.564 76.0178C120.316 76.0178 120.071 76.0733 119.846 76.1803L111.199 80.3097C110.977 80.4173 110.782 80.5728 110.627 80.7651C110.472 80.9574 110.362 81.1816 110.305 81.4215L108.172 90.6986C108.124 90.9124 108.119 91.1337 108.157 91.3495C108.196 91.5653 108.277 91.7713 108.396 91.9553C108.425 92.0003 108.456 92.0439 108.49 92.0859L114.475 99.5247C114.632 99.7161 114.829 99.8706 115.053 99.9772C115.276 100.084 115.52 100.14 115.768 100.141L125.366 100.139C125.613 100.138 125.857 100.082 126.081 99.9752C126.304 99.8688 126.501 99.7145 126.658 99.5232L132.641 92.0837C132.794 91.8909 132.903 91.6662 132.958 91.4262C133.013 91.1862 133.014 90.9369 132.961 90.6964V90.6961ZM131.927 91.1305C131.912 91.1962 131.894 91.2608 131.871 91.3241C131.816 91.478 131.736 91.6217 131.634 91.7495L126.317 98.3605L126.15 98.5686C126.047 98.6951 125.924 98.8038 125.786 98.8905C125.733 98.9246 125.677 98.9555 125.62 98.9829C125.582 99.0006 125.543 99.0168 125.503 99.0312C125.452 99.0506 125.4 99.0673 125.347 99.0812C125.274 99.101 125.199 99.1152 125.124 99.1238C125.071 99.1297 125.018 99.1328 124.965 99.133L116.253 99.135H116.168C116.038 99.1342 115.908 99.1164 115.783 99.082C115.629 99.0414 115.483 98.9778 115.349 98.8933C115.243 98.8259 115.146 98.7454 115.06 98.6538C115.034 98.6261 115.007 98.5991 114.983 98.5695L109.497 91.7516C109.467 91.7131 109.438 91.6732 109.411 91.6318C109.349 91.5359 109.299 91.4331 109.261 91.3255C109.238 91.2624 109.219 91.1979 109.205 91.1324C109.157 90.9174 109.158 90.6946 109.206 90.4797L111.161 81.9768C111.214 81.7569 111.315 81.5514 111.456 81.3751C111.598 81.1989 111.777 81.0563 111.981 80.9577L119.906 77.1729C120.112 77.0749 120.336 77.024 120.564 77.024C120.792 77.024 121.017 77.0749 121.222 77.1729L129.149 80.956C129.352 81.0547 129.531 81.1974 129.673 81.3737C129.815 81.5499 129.916 81.7555 129.968 81.9755L131.927 90.4782C131.975 90.693 131.975 90.9159 131.927 91.1307V91.1305Z" fill="#1E1E1E" stroke="#6850A4"/>
<path d="M89.329 68.6783L87.1926 59.4018C87.1351 59.1618 87.0251 58.9375 86.8704 58.7451C86.7157 58.5527 86.5202 58.3971 86.2981 58.2894L77.6503 54.1624C77.4261 54.0555 77.1809 54 76.9325 54C76.6841 54 76.4389 54.0555 76.2148 54.1624L67.5678 58.2919C67.3456 58.3995 67.1501 58.555 66.9953 58.7473C66.8406 58.9395 66.7305 59.1637 66.6729 59.4037L64.5402 68.6807C64.4921 68.8946 64.4871 69.1159 64.5256 69.3317C64.5641 69.5475 64.6453 69.7534 64.7644 69.9375C64.7937 69.9824 64.8249 70.026 64.8586 70.0681L70.8437 77.5069C71.0005 77.6983 71.1977 77.8528 71.4211 77.9593C71.6445 78.0659 71.8887 78.1219 72.1362 78.1234L81.734 78.1211C81.9815 78.1197 82.2256 78.0638 82.449 77.9574C82.6725 77.851 82.8697 77.6967 83.0267 77.5054L89.0096 70.0659C89.1628 69.873 89.271 69.6484 89.3263 69.4084C89.3815 69.1684 89.3825 68.919 89.329 68.6786V68.6783ZM88.2952 69.1127C88.2808 69.1783 88.2621 69.243 88.2393 69.3063C88.1842 69.4602 88.1041 69.6039 88.0021 69.7316L82.6855 76.3427L82.5185 76.5508C82.4155 76.6772 82.2924 76.786 82.1543 76.8727C82.101 76.9068 82.0456 76.9377 81.9886 76.9651C81.9502 76.9828 81.911 76.9989 81.8711 77.0134C81.8202 77.0328 81.7683 77.0494 81.7157 77.0634C81.6423 77.0832 81.5676 77.0974 81.4921 77.106C81.4395 77.1119 81.3866 77.115 81.3336 77.1152L72.6219 77.1172H72.5365C72.4062 77.1164 72.2766 77.0986 72.151 77.0642C71.9979 77.0236 71.8518 76.96 71.7177 76.8755C71.6116 76.808 71.5143 76.7276 71.4282 76.636C71.402 76.6083 71.3756 76.5812 71.3517 76.5517L65.8659 69.7338C65.8353 69.6953 65.8066 69.6554 65.7799 69.614C65.7178 69.5181 65.6672 69.4153 65.6289 69.3077C65.6063 69.2446 65.5878 69.1801 65.5737 69.1146C65.5258 68.8996 65.526 68.6767 65.5742 68.4619L67.5293 59.959C67.582 59.7391 67.6829 59.5335 67.8247 59.3573C67.9665 59.1811 68.1457 59.0385 68.3493 58.9399L76.2747 55.155C76.4801 55.057 76.7049 55.0062 76.9325 55.0062C77.1602 55.0062 77.3849 55.057 77.5904 55.155L85.517 58.9382C85.7206 59.0369 85.8997 59.1795 86.0415 59.3558C86.1832 59.5321 86.2841 59.7377 86.3367 59.9576L88.295 68.4604C88.3432 68.6752 88.3433 68.898 88.2952 69.1129V69.1127Z" fill="#1E1E1E" stroke="#8C3D7A"/>
<path d="M119.461 68.6783L117.324 59.4018C117.267 59.1618 117.157 58.9375 117.002 58.7451C116.847 58.5527 116.652 58.3971 116.43 58.2894L107.782 54.1624C107.558 54.0555 107.312 54 107.064 54C106.816 54 106.571 54.0555 106.346 54.1624L97.6994 58.2919C97.4772 58.3995 97.2817 58.555 97.1269 58.7473C96.9722 58.9395 96.8621 59.1637 96.8045 59.4037L94.6718 68.6807C94.6236 68.8946 94.6187 69.1159 94.6572 69.3317C94.6957 69.5475 94.7769 69.7534 94.896 69.9375C94.9253 69.9824 94.9565 70.026 94.9902 70.0681L100.975 77.5069C101.132 77.6983 101.329 77.8528 101.553 77.9593C101.776 78.0659 102.02 78.1219 102.268 78.1234L111.866 78.1211C112.113 78.1197 112.357 78.0638 112.581 77.9574C112.804 77.851 113.001 77.6967 113.158 77.5054L119.141 70.0659C119.294 69.873 119.403 69.6484 119.458 69.4084C119.513 69.1684 119.514 68.919 119.461 68.6786V68.6783ZM118.427 69.1127C118.412 69.1783 118.394 69.243 118.371 69.3063C118.316 69.4602 118.236 69.6039 118.134 69.7316L112.817 76.3427L112.65 76.5508C112.547 76.6772 112.424 76.786 112.286 76.8727C112.233 76.9068 112.177 76.9377 112.12 76.9651C112.082 76.9828 112.043 76.9989 112.003 77.0134C111.952 77.0328 111.9 77.0494 111.847 77.0634C111.774 77.0832 111.699 77.0974 111.624 77.106C111.571 77.1119 111.518 77.115 111.465 77.1152L102.753 77.1172H102.668C102.538 77.1164 102.408 77.0986 102.283 77.0642C102.129 77.0236 101.983 76.96 101.849 76.8755C101.743 76.808 101.646 76.7276 101.56 76.636C101.534 76.6083 101.507 76.5812 101.483 76.5517L95.9974 69.7338C95.9669 69.6953 95.9382 69.6554 95.9115 69.614C95.8494 69.5181 95.7988 69.4153 95.7605 69.3077C95.7379 69.2446 95.7194 69.1801 95.7053 69.1146C95.6574 68.8996 95.6576 68.6767 95.7058 68.4619L97.6609 59.959C97.7136 59.7391 97.8145 59.5335 97.9563 59.3573C98.0981 59.1811 98.2773 59.0385 98.4809 58.9399L106.406 55.155C106.612 55.057 106.836 55.0062 107.064 55.0062C107.292 55.0062 107.517 55.057 107.722 55.155L115.649 58.9382C115.852 59.0369 116.031 59.1795 116.173 59.3558C116.315 59.5321 116.416 59.7377 116.468 59.9576L118.427 68.4604C118.475 68.6752 118.475 68.898 118.427 69.1129V69.1127Z" fill="#1E1E1E" stroke="#6750A6"/>
<path d="M89.0396 115.555L86.9031 106.278C86.8457 106.038 86.7356 105.814 86.5809 105.622C86.4263 105.429 86.2308 105.274 86.0086 105.166L77.3608 101.039C77.1367 100.932 76.8914 100.877 76.6431 100.877C76.3947 100.877 76.1495 100.932 75.9253 101.039L67.2783 105.168C67.0561 105.276 66.8606 105.432 66.7059 105.624C66.5511 105.816 66.441 106.04 66.3835 106.28L64.2507 115.557C64.2026 115.771 64.1977 115.992 64.2362 116.208C64.2747 116.424 64.3558 116.63 64.475 116.814C64.5043 116.859 64.5354 116.903 64.5691 116.945L70.5542 124.383C70.7111 124.575 70.9082 124.729 71.1316 124.836C71.355 124.942 71.5992 124.999 71.8467 125L81.4446 124.998C81.692 124.996 81.9362 124.94 82.1596 124.834C82.383 124.728 82.5802 124.573 82.7372 124.382L88.7201 116.943C88.8733 116.75 88.9815 116.525 89.0368 116.285C89.0921 116.045 89.093 115.796 89.0396 115.555V115.555ZM88.0058 115.989C87.9914 116.055 87.9727 116.12 87.9498 116.183C87.8948 116.337 87.8146 116.48 87.7126 116.608L82.3961 123.219L82.229 123.427C82.126 123.554 82.003 123.663 81.8648 123.749C81.8115 123.783 81.7562 123.814 81.6991 123.842C81.6607 123.859 81.6216 123.876 81.5817 123.89C81.5308 123.909 81.4789 123.926 81.4262 123.94C81.3529 123.96 81.2781 123.974 81.2027 123.983C81.15 123.989 81.0971 123.992 81.0442 123.992L72.3324 123.994H72.247C72.1168 123.993 71.9872 123.975 71.8616 123.941C71.7084 123.9 71.5623 123.837 71.4282 123.752C71.3221 123.685 71.2249 123.604 71.1387 123.513C71.1125 123.485 71.0861 123.458 71.0623 123.428L65.5764 116.61C65.5458 116.572 65.5172 116.532 65.4904 116.491C65.4284 116.395 65.3777 116.292 65.3394 116.184C65.3168 116.121 65.2984 116.057 65.2843 115.991C65.2364 115.776 65.2365 115.553 65.2847 115.338L67.2399 106.836C67.2926 106.616 67.3935 106.41 67.5353 106.234C67.6771 106.058 67.8562 105.915 68.0598 105.816L75.9852 102.032C76.1907 101.934 76.4154 101.883 76.6431 101.883C76.8707 101.883 77.0955 101.934 77.3009 102.032L85.2275 105.815C85.4311 105.913 85.6102 106.056 85.752 106.232C85.8938 106.409 85.9946 106.614 86.0473 106.834L88.0056 115.337C88.0538 115.552 88.0539 115.775 88.0058 115.989V115.989Z" fill="#1E1E1E" stroke="#C61A1A"/>
<path d="M121.592 115.555L119.456 106.278C119.398 106.038 119.288 105.814 119.134 105.622C118.979 105.429 118.783 105.274 118.561 105.166L109.913 101.039C109.689 100.932 109.444 100.877 109.196 100.877C108.947 100.877 108.702 100.932 108.478 101.039L99.8309 105.168C99.6087 105.276 99.4132 105.432 99.2585 105.624C99.1037 105.816 98.9936 106.04 98.9361 106.28L96.8033 115.557C96.7552 115.771 96.7503 115.992 96.7888 116.208C96.8273 116.424 96.9085 116.63 97.0276 116.814C97.0569 116.859 97.088 116.903 97.1218 116.945L103.107 124.383C103.264 124.575 103.461 124.729 103.684 124.836C103.908 124.942 104.152 124.999 104.399 125L113.997 124.998C114.245 124.996 114.489 124.94 114.712 124.834C114.936 124.728 115.133 124.573 115.29 124.382L121.273 116.943C121.426 116.75 121.534 116.525 121.589 116.285C121.645 116.045 121.646 115.796 121.592 115.555V115.555ZM120.558 115.989C120.544 116.055 120.525 116.12 120.502 116.183C120.447 116.337 120.367 116.48 120.265 116.608L114.949 123.219L114.782 123.427C114.679 123.554 114.556 123.663 114.417 123.749C114.364 123.783 114.309 123.814 114.252 123.842C114.213 123.859 114.174 123.876 114.134 123.89C114.083 123.909 114.032 123.926 113.979 123.94C113.905 123.96 113.831 123.974 113.755 123.983C113.703 123.989 113.65 123.992 113.597 123.992L104.885 123.994H104.8C104.669 123.993 104.54 123.975 104.414 123.941C104.261 123.9 104.115 123.837 103.981 123.752C103.875 123.685 103.777 123.604 103.691 123.513C103.665 123.485 103.639 123.458 103.615 123.428L98.129 116.61C98.0984 116.572 98.0698 116.532 98.043 116.491C97.981 116.395 97.9303 116.292 97.8921 116.184C97.8694 116.121 97.851 116.057 97.8369 115.991C97.789 115.776 97.7891 115.553 97.8373 115.338L99.7925 106.836C99.8452 106.616 99.9461 106.41 100.088 106.234C100.23 106.058 100.409 105.915 100.612 105.816L108.538 102.032C108.743 101.934 108.968 101.883 109.196 101.883C109.423 101.883 109.648 101.934 109.854 102.032L117.78 105.815C117.984 105.913 118.163 106.056 118.305 106.232C118.446 106.409 118.547 106.614 118.6 106.834L120.558 115.337C120.606 115.552 120.606 115.775 120.558 115.989V115.989Z" fill="#1E1E1E" stroke="#A4305D"/>
<defs>
<linearGradient id="paint0_linear_1_82" x1="157.19" y1="4.44672" x2="26.2715" y2="137.746" gradientUnits="userSpaceOnUse">
<stop stop-color="#326CE5"/>
<stop offset="1" stop-color="#D01010"/>
</linearGradient>
<linearGradient id="paint1_linear_1_82" x1="105" y1="78" x2="80" y2="102" gradientUnits="userSpaceOnUse">
<stop stop-color="#0B56F4"/>
<stop offset="1" stop-color="#E70D0D"/>
</linearGradient>
</defs>
</svg>
